# File created by Blade
# Date/Time:  Wed Jan 21 17:34:04 2015
# Frame Rate: 120.000 fps
#------------------------------------------------------
:FULLY-SPECIFIED
:DEGREES
458
root 18.397707 4.647115 -13.297869 -209.201192 27.049226 -147.978800
Spine 59.703600 -2.112641 20.883952
Head 7.948404 5.870952 7.197857
LeftShoulder -0.096895 -12.828109 20.027148
LeftArm -33.756607 20.293746 -96.883199
LeftForeArm -52.839624 -0.000000 67.799536
LeftHand -18.373296 0.000000 17.736417
LeftHandThumb1 -26.253704 0.000000 33.147579
RightShoulder -4.930237 -13.566771 0.231627
RightArm 13.492955 3.958337 48.950696
RightForeArm -33.331200 0.000000 72.772755
RightHand -9.447670 -0.000000 -5.009608
RightHandThumb1 -24.326973 -0.000000 -32.862282
LeftUpLeg -100.684399 22.041407 -43.982716
LeftLeg 111.676387 -0.000000 -0.000000
LeftFoot 17.496049 21.751155 -3.527273
LeftToeBase 20.341704 -0.000000 -0.000000
RightUpLeg -93.912577 -2.380168 35.038487
RightLeg 148.039058 -0.000000 -0.000000
RightFoot -35.939911 -32.913460 14.334987
RightToeBase 18.486708 -0.000000 -0.000000
459
root 18.376443 4.653610 -13.316595 -209.307474 26.960982 -147.651686
Spine 59.639963 -2.371056 20.885318
Head 8.202382 5.906362 7.389406
LeftShoulder -0.053993 -12.818070 20.040394
LeftArm -33.947028 20.643373 -96.970280
LeftForeArm -53.034360 0.000000 68.213378
LeftHand -18.747667 -0.000000 18.490058
LeftHandThumb1 -26.253704 0.000000 33.147579
RightShoulder -5.502985 -14.199338 1.008418
RightArm 12.827820 2.543781 49.137894
RightForeArm -33.557790 -0.000000 71.574143
RightHand -9.282471 -0.000000 -4.223961
RightHandThumb1 -24.326973 -0.000000 -32.862282
LeftUpLeg -100.588440 22.279552 -43.715792
LeftLeg 111.969908 -0.000000 -0.000000
LeftFoot 17.754680 21.865935 -3.300073
LeftToeBase 20.402325 -0.000000 -0.000000
RightUpLeg -93.678365 -2.930832 35.077337
RightLeg 148.011505 -0.000000 -0.000000
RightFoot -36.032935 -32.660853 14.499745
RightToeBase 18.629430 -0.000000 -0.000000
460
root 18.357978 4.654752 -13.339896 -209.445161 26.861223 -147.343415
Spine 59.585181 -2.682260 20.791781
Head 8.450858 5.923590 7.575523
LeftShoulder -0.135084 -12.723599 20.206312
LeftArm -34.037929 21.020478 -97.176563
LeftForeArm -53.176672 -0.000000 68.557830
LeftHand -19.056734 -0.000000 19.323414
LeftHandThumb1 -26.253704 0.000000 33.147579
RightShoulder -6.026382 -14.793361 1.646048
RightArm 12.233393 1.169486 49.533289
RightForeArm -33.655949 0.000000 70.354586
RightHand -9.099144 -0.000000 -3.659438
RightHandThumb1 -24.326973 -0.000000 -32.862282
LeftUpLeg -100.479528 22.520276 -43.450289
LeftLeg 112.274296 -0.000000 -0.000000
LeftFoot 18.010794 21.982438 -3.205185
LeftToeBase 20.569403 -0.000000 -0.000000
RightUpLeg -93.454754 -3.493734 35.074565
RightLeg 147.988065 -0.000000 -0.000000
RightFoot -36.062943 -32.594949 14.538831
RightToeBase 18.471560 -0.000000 -0.000000
461
root 18.330524 4.648945 -13.362974 -209.564340 26.764782 -147.065118
Spine 59.502865 -3.038992 20.616878
Head 8.723939 6.046752 7.718737
LeftShoulder -0.335357 -12.561104 20.423993
LeftArm -34.049574 21.359703 -97.431040
LeftForeArm -53.254587 -0.000000 68.847115
LeftHand -19.433367 0.000000 20.090368
LeftHandThumb1 -26.253704 0.000000 33.147579
RightShoulder -6.477247 -15.453072 2.227220
RightArm 11.742225 -0.128423 49.949864
RightForeArm -34.013341 -0.000000 69.237550
RightHand -9.478471 -0.000000 -3.137349
RightHandThumb1 -24.326973 -0.000000 -32.862282
LeftUpLeg -100.410007 22.715122 -43.250643
LeftLeg 112.521612 -0.000000 -0.000000
LeftFoot 18.398002 22.257225 -3.231810
LeftToeBase 20.609814 -0.000000 -0.000000
RightUpLeg -93.255197 -4.069061 35.090915
RightLeg 148.068765 -0.000000 -0.000000
RightFoot -36.175220 -32.299721 14.600331
RightToeBase 18.412061 -0.000000 -0.000000
462
root 18.305506 4.646655 -13.388766 -209.671705 26.711243 -146.761385
Spine 59.399881 -3.317196 20.545064
Head 9.013394 6.091510 7.939072
LeftShoulder -0.420625 -12.413375 20.651728
LeftArm -34.069525 21.569260 -97.727093
LeftForeArm -53.261211 -0.000000 69.121874
LeftHand -19.824112 0.000000 20.844825
LeftHandThumb1 -26.253704 0.000000 33.147579
RightShoulder -6.934100 -15.901260 2.823001
RightArm 11.091524 -1.309131 50.429291
RightForeArm -34.388845 0.000000 68.049388
RightHand -9.327625 -0.000000 -2.958638
RightHandThumb1 -24.326973 -0.000000 -32.862282
LeftUpLeg -100.375762 22.927650 -42.992856
LeftLeg 112.803340 -0.000000 -0.000000
LeftFoot 18.847425 22.367630 -3.231233
LeftToeBase 19.941977 -0.000000 -0.000000
RightUpLeg -92.999776 -4.664431 34.953840
RightLeg 148.109170 -0.000000 -0.000000
RightFoot -36.301854 -31.523763 14.739844
RightToeBase 18.574362 -0.000000 -0.000000
463
root 18.281535 4.643304 -13.414756 -209.779056 26.623536 -146.480443
Spine 59.269664 -3.599451 20.440720
Head 9.301684 6.139147 8.184985
LeftShoulder -0.508276 -12.196722 20.886704
LeftArm -33.992641 21.807253 -98.002189
LeftForeArm -53.255555 -0.000000 69.377106
LeftHand -20.241135 -0.000000 21.736812
LeftHandThumb1 -26.253704 0.000000 33.147579
RightShoulder -7.454706 -16.268908 3.420300
RightArm 10.500092 -2.324815 51.004358
RightForeArm -34.630161 -0.000000 66.964594
RightHand -9.311097 0.000000 -2.436273
RightHandThumb1 -24.326973 -0.000000 -32.862282
LeftUpLeg -100.271217 23.124953 -42.767441
LeftLeg 113.113081 -0.000000 -0.000000
LeftFoot 19.115083 22.194009 -2.838589
LeftToeBase 20.567449 -0.000000 -0.000000
RightUpLeg -92.778865 -5.235463 34.728784
RightLeg 148.132226 -0.000000 -0.000000
RightFoot -36.369075 -30.745648 14.920543
RightToeBase 18.874006 -0.000000 -0.000000
464
root 18.245913 4.641901 -13.442619 -209.888361 26.553401 -146.159325
Spine 59.142040 -3.968455 20.342838
Head 9.683023 6.210396 8.406786
LeftShoulder -0.585221 -11.975451 21.054571
LeftArm -33.965728 21.882918 -98.280405
LeftForeArm -53.246277 0.000000 69.683801
LeftHand -20.644738 -0.000000 22.700854
LeftHandThumb1 -26.253704 0.000000 33.147579
RightShoulder -7.840414 -16.813683 3.984814
RightArm 10.006925 -3.017201 51.570532
RightForeArm -34.540098 -0.000000 65.974624
RightHand -9.362294 -0.000000 -1.841169
RightHandThumb1 -24.326973 -0.000000 -32.862282
LeftUpLeg -100.134716 23.304683 -42.475099
LeftLeg 113.360095 -0.000000 -0.000000
LeftFoot 19.448621 22.085332 -2.751283
LeftToeBase 20.472185 -0.000000 -0.000000
RightUpLeg -92.573619 -5.872171 34.588664
RightLeg 148.126471 -0.000000 -0.000000
RightFoot -36.163189 -30.426767 14.842599
RightToeBase 19.415118 -0.000000 -0.000000
465
root 18.209836 4.642304 -13.472604 -210.017387 26.496340 -145.813888
Spine 59.062695 -4.354578 20.245646
Head 9.973901 6.256324 8.664578
LeftShoulder -0.682159 -11.752338 21.201759
LeftArm -33.978366 21.954625 -98.558892
LeftForeArm -53.307805 -0.000000 70.025496
LeftHand -20.918657 -0.000000 23.613120
LeftHandThumb1 -26.253704 0.000000 33.147579
RightShoulder -8.210543 -17.253317 4.521456
RightArm 9.472017 -3.546954 52.186053
RightForeArm -34.674384 -0.000000 65.020805
RightHand -9.330742 -0.000000 -1.252217
RightHandThumb1 -24.326973 -0.000000 -32.862282
LeftUpLeg -99.970463 23.486384 -42.121952
LeftLeg 113.612611 -0.000000 -0.000000
LeftFoot 19.792907 21.958088 -2.771109
LeftToeBase 20.459650 -0.000000 -0.000000
RightUpLeg -92.344589 -6.559793 34.473215
RightLeg 148.116488 -0.000000 -0.000000
RightFoot -36.181774 -29.882299 15.151790
RightToeBase 20.072211 -0.000000 -0.000000
466
root 18.173613 4.646897 -13.495921 -210.126940 26.479647 -145.449876
Spine 58.990876 -4.702238 20.164976
Head 10.276525 6.310088 8.993357
LeftShoulder -0.746575 -11.495779 21.303795
LeftArm -33.961543 21.966487 -98.796393
LeftForeArm -53.305380 -0.000000 70.391436
LeftHand -21.190286 0.000000 24.634543
LeftHandThumb1 -26.253704 0.000000 33.147579
RightShoulder -8.590832 -17.591403 5.110984
RightArm 8.953804 -4.035597 52.730028
RightForeArm -34.258104 0.000000 64.158467
RightHand -9.542184 -0.000000 -0.625376
RightHandThumb1 -24.326973 -0.000000 -32.862282
LeftUpLeg -99.788912 23.680557 -41.728497
LeftLeg 113.858559 -0.000000 -0.000000
LeftFoot 20.026948 21.633183 -2.486583
LeftToeBase 20.626164 -0.000000 -0.000000
RightUpLeg -92.100987 -7.216579 34.394266
RightLeg 148.040362 -0.000000 -0.000000
RightFoot -35.974121 -29.629899 15.126131
RightToeBase 20.774866 -0.000000 -0.000000
467
root 18.126046 4.652824 -13.519497 -210.225269 26.465517 -145.010798
Spine 58.950822 -5.185638 20.139259
Head 10.540043 6.421904 9.237517
LeftShoulder -0.859976 -11.163125 21.277580
LeftArm -33.894747 21.989641 -98.978309
LeftForeArm -53.212852 -0.000000 70.830473
LeftHand -21.446245 -0.000000 25.712493
LeftHandThumb1 -26.253704 0.000000 33.147579
RightShoulder -8.922267 -17.794981 5.544521
RightArm 8.406274 -4.410158 53.338312
RightForeArm -33.572073 -0.000000 63.336375
RightHand -9.515466 0.000000 -0.464706
RightHandThumb1 -24.326973 -0.000000 -32.862282
LeftUpLeg -99.548867 23.828391 -41.238595
LeftLeg 114.033301 -0.000000 -0.000000
LeftFoot 20.371129 21.353826 -2.285876
LeftToeBase 20.618706 -0.000000 -0.000000
RightUpLeg -91.842267 -7.966678 34.320435
RightLeg 147.937434 -0.000000 -0.000000
RightFoot -35.717989 -29.216434 15.197438
RightToeBase 21.348401 -0.000000 -0.000000
468
root 18.096169 4.662883 -13.537975 -210.320483 26.562440 -144.651664
Spine 58.881243 -5.416956 20.097806
Head 10.874357 6.441499 9.643440
LeftShoulder -0.820977 -10.955731 21.277420
LeftArm -34.029613 21.947877 -99.171506
LeftForeArm -52.941173 -0.000000 71.284657
LeftHand -21.704904 -0.000000 26.577119
LeftHandThumb1 -26.253704 0.000000 33.147579
RightShoulder -9.311308 -17.958134 6.122954
RightArm 7.838867 -4.660383 53.914775
RightForeArm -32.768989 0.000000 62.621226
RightHand -9.494323 -0.000000 0.270659
RightHandThumb1 -24.326973 -0.000000 -32.862282
LeftUpLeg -99.483182 24.054631 -40.773567
LeftLeg 114.270875 -0.000000 -0.000000
LeftFoot 20.635582 21.071222 -2.152455
LeftToeBase 20.624496 -0.000000 -0.000000
RightUpLeg -91.567439 -8.499498 34.338887
RightLeg 147.798995 -0.000000 -0.000000
RightFoot -35.430224 -28.956417 15.179387
RightToeBase 21.752077 -0.000000 -0.000000
